<svg xmlns="http://www.w3.org/2000/svg" xmlns:xlink="http://www.w3.org/1999/xlink" width="500" zoomAndPan="magnify" viewBox="0 0 375 374.999991" height="500" preserveAspectRatio="xMidYMid meet" version="1.0"><defs><clipPath id="a8b90624d3"><path d="M 31 31 L 344 31 L 344 344 L 31 344 Z M 31 31 " clip-rule="nonzero"/></clipPath><clipPath id="6212164851"><path d="M 62.5 187.5 C 62.5 118.464844 118.464844 62.5 187.5 62.5 C 256.535156 62.5 312.5 118.464844 312.5 187.5 C 312.5 256.535156 256.535156 312.5 187.5 312.5 C 162.878906 312.5 139.964844 305.398438 120.636719 293.132812 C 116.667969 290.617188 111.78125 290.019531 107.324219 291.503906 L 71.582031 303.421875 L 83.496094 267.675781 C 84.980469 263.21875 84.382812 258.332031 81.867188 254.363281 C 69.601562 235.039062 62.5 212.121094 62.5 187.5 Z M 187.5 31.25 C 101.207031 31.25 31.25 101.207031 31.25 187.5 C 31.25 215.515625 38.636719 241.851562 51.578125 264.613281 L 32.050781 323.183594 C 30.179688 328.796875 31.640625 334.988281 35.828125 339.171875 C 40.011719 343.359375 46.203125 344.820312 51.816406 342.949219 L 110.386719 323.425781 C 133.152344 336.363281 159.484375 343.75 187.5 343.75 C 273.796875 343.75 343.75 273.792969 343.75 187.5 C 343.75 101.207031 273.796875 31.25 187.5 31.25 Z M 121.207031 121.207031 C 109.148438 133.265625 101.039062 147.835938 96.925781 163.246094 C 94.699219 171.582031 99.652344 180.148438 107.992188 182.371094 C 116.328125 184.597656 124.890625 179.644531 127.117188 171.304688 C 129.851562 161.0625 135.234375 151.375 143.304688 143.304688 C 151.371094 135.238281 161.058594 129.855469 171.304688 127.121094 C 179.640625 124.894531 184.59375 116.332031 182.367188 107.996094 C 180.144531 99.65625 171.582031 94.703125 163.242188 96.929688 C 147.832031 101.042969 133.265625 109.148438 121.207031 121.207031 Z M 211.75 96.929688 C 203.414062 94.703125 194.851562 99.65625 192.625 107.996094 C 190.398438 116.332031 195.351562 124.894531 203.691406 127.121094 C 213.9375 129.855469 223.621094 135.238281 231.691406 143.304688 C 239.761719 151.375 245.140625 161.0625 247.875 171.304688 C 250.101562 179.644531 258.664062 184.597656 267.003906 182.371094 C 275.339844 180.148438 280.292969 171.582031 278.070312 163.246094 C 273.953125 147.835938 265.847656 133.265625 253.789062 121.207031 C 241.730469 109.148438 227.164062 101.042969 211.75 96.929688 Z M 127.117188 203.695312 C 124.890625 195.355469 116.328125 190.402344 107.992188 192.628906 C 99.652344 194.851562 94.699219 203.417969 96.925781 211.753906 C 101.039062 227.164062 109.148438 241.734375 121.207031 253.789062 C 133.265625 265.851562 147.832031 273.957031 163.242188 278.070312 C 171.582031 280.296875 180.144531 275.34375 182.367188 267.003906 C 184.59375 258.667969 179.640625 250.105469 171.304688 247.878906 C 161.058594 245.144531 151.371094 239.765625 143.304688 231.695312 C 135.234375 223.625 129.851562 213.9375 127.117188 203.695312 Z M 203.691406 247.878906 C 195.351562 250.105469 190.398438 258.667969 192.625 267.003906 C 194.851562 275.34375 203.414062 280.296875 211.75 278.070312 C 227.164062 273.957031 241.730469 265.851562 253.789062 253.789062 C 265.847656 241.734375 273.953125 227.164062 278.070312 211.753906 C 280.292969 203.417969 275.339844 194.851562 267.003906 192.628906 C 258.664062 190.402344 250.101562 195.355469 247.875 203.695312 C 245.140625 213.9375 239.761719 223.625 231.691406 231.695312 C 223.621094 239.765625 213.9375 245.144531 203.691406 247.878906 Z M 203.691406 247.878906 " clip-rule="evenodd"/></clipPath></defs><g clip-path="url(#a8b90624d3)"><g clip-path="url(#6212164851)"><path fill="#000000" d="M 30.179688 31.25 L 30.179688 344.820312 L 343.75 344.820312 L 343.75 31.25 Z M 30.179688 31.25 " fill-opacity="1" fill-rule="nonzero"/></g></g></svg>